<svg xmlns="http://www.w3.org/2000/svg" viewBox="0 0 512 512" width="512" height="512">
  <circle cx="255.7" cy="255.7" r="234.6" fill="#333333"/>
  <path d="M 368.1,369.8 L 323.5,369.5 L 323.5,279.5 L 320.7,271.2 L 317.2,265.7 L 317.9,264.3 L 314.8,259.8 L 311.4,259.8 L 307.9,256.3 L 306.5,257.0 L 303.7,255.0 L 296.1,253.6 L 282.3,254.3 L 274.0,259.8 L 271.2,259.8 L 270.9,262.2 L 262.6,271.2 L 259.8,278.1 L 259.1,369.5 L 214.1,369.5 L 214.5,215.5 L 216.6,214.1 L 258.8,214.1 L 259.5,236.3 L 262.6,233.9 L 262.9,231.4 L 264.3,233.5 L 265.3,233.2 L 264.6,229.7 L 268.5,226.6 L 269.1,227.3 L 270.2,226.2 L 268.8,225.6 L 272.6,222.4 L 277.4,221.1 L 279.5,218.3 L 283.0,216.9 L 296.8,212.8 L 321.7,212.8 L 329.3,214.1 L 337.0,216.9 L 337.6,218.3 L 340.4,218.3 L 343.2,221.1 L 348.0,223.1 L 350.1,226.6 L 352.2,226.6 L 353.9,228.3 L 365.0,244.9 L 365.0,248.4 L 366.4,249.1 L 367.7,253.2 L 369.1,263.6 L 369.1,368.8 L 368.1,369.8 Z M 185.4,369.8 L 140.1,369.5 L 140.5,214.1 L 141.1,215.5 L 142.5,214.1 L 184.0,214.1 L 184.7,215.5 L 185.8,214.5 L 185.4,369.8 Z M 166.7,190.6 L 158.4,190.6 L 149.4,187.8 L 147.4,183.7 L 146.0,185.1 L 145.6,183.4 L 140.8,179.9 L 140.8,177.1 L 139.4,177.8 L 135.3,165.4 L 136.6,154.3 L 140.8,146.0 L 142.5,144.3 L 143.2,145.0 L 145.0,141.8 L 147.0,141.1 L 146.7,140.1 L 148.1,140.8 L 149.4,138.0 L 154.3,138.0 L 158.4,135.3 L 167.4,135.3 L 168.8,136.6 L 172.3,136.6 L 171.6,138.0 L 173.7,137.3 L 176.4,138.7 L 178.2,140.5 L 176.8,141.1 L 177.1,142.2 L 178.5,140.8 L 180.6,141.5 L 180.9,143.2 L 183.7,144.6 L 183.7,147.4 L 184.7,146.3 L 187.2,150.1 L 189.9,157.8 L 189.2,170.9 L 187.8,171.6 L 187.8,175.0 L 182.3,181.3 L 183.0,182.0 L 176.4,187.2 L 166.7,190.6 Z" fill="#ffffff" fill-rule="evenodd"/>
</svg>
